<?xml version="1.0" encoding="UTF-8"?>
<svg id="Layer_1" data-name="Layer 1" xmlns="http://www.w3.org/2000/svg" xmlns:xlink="http://www.w3.org/1999/xlink" viewBox="0 0 589 237">
  <defs>
    <style>
      .cls-1 {
        mask: url(#mask);
      }

      .cls-2 {
        fill: #fff;
        fill-rule: evenodd;
        stroke-width: 0px;
      }
    </style>
    <mask id="mask" x="315.65" y="194.13" width="39.31" height="33.86" maskUnits="userSpaceOnUse">
      <g id="va2khde3pb">
        <path id="_0enaa8ysea" data-name="0enaa8ysea" class="cls-2" d="m315.65,194.13h39.31v33.85h-39.31v-33.85Z"/>
      </g>
    </mask>
  </defs>
  <path class="cls-2" d="m51.9,84.44h13.52c14.97,0,22.46-6.54,22.46-19.61s-7.49-19.61-22.46-19.61h-13.52v39.22Zm0,85.12H11.14V12.25h64.89c17.61,0,31.1,4.59,40.45,13.77,9.36,9.18,14.04,22.11,14.04,38.8s-4.68,29.63-14.04,38.81c-9.36,9.18-22.84,13.77-40.45,13.77h-24.12v52.15h0Zm306.71-34.63h9.36c7.07,0,13.38-1.11,18.92-3.33,5.55-2.22,10.22-5.29,14.04-9.18,3.81-3.89,6.72-8.52,8.73-13.87,2.01-5.35,3.01-11.23,3.01-17.63s-1.04-12.1-3.12-17.52c-2.08-5.42-5.03-10.08-8.84-13.98-3.82-3.89-8.5-6.95-14.04-9.18-5.55-2.22-11.78-3.34-18.72-3.34h-9.36v88.04h0Zm-40.76-122.66h60.32c10.67,0,20.7,2.16,30.05,6.47,9.36,4.31,17.54,10.05,24.54,17.21,7,7.16,12.51,15.51,16.53,25.03,4.02,9.53,6.03,19.51,6.03,29.94s-1.98,20.2-5.93,29.73c-3.95,9.53-9.43,17.91-16.43,25.14-7,7.23-15.18,13-24.54,17.32-9.36,4.31-19.44,6.47-30.26,6.47h-60.32V12.25h0Zm241.48,40.26c-4.44-3.62-8.88-6.29-13.31-8.03-4.44-1.74-8.74-2.6-12.9-2.6-5.27,0-9.57,1.25-12.89,3.76-3.33,2.5-4.99,5.77-4.99,9.8,0,2.78.83,5.08,2.5,6.89,1.66,1.81,3.85,3.37,6.55,4.7,2.7,1.32,5.75,2.47,9.15,3.44,3.39.97,6.76,2.01,10.09,3.13,13.31,4.45,23.05,10.4,29.22,17.84,6.17,7.44,9.26,17.14,9.26,29.1,0,8.07-1.35,15.37-4.06,21.9-2.7,6.54-6.66,12.14-11.86,16.8-5.2,4.66-11.58,8.28-19.13,10.85-7.56,2.57-16.12,3.86-25.69,3.86-19.83,0-38.2-5.91-55.11-17.73l17.47-32.96c6.1,5.42,12.13,9.46,18.09,12.1,5.96,2.65,11.86,3.97,17.68,3.97,6.65,0,11.61-1.53,14.87-4.59,3.25-3.06,4.89-6.54,4.89-10.43,0-2.36-.42-4.41-1.25-6.15-.83-1.74-2.22-3.34-4.16-4.8-1.94-1.46-4.47-2.82-7.59-4.07-3.12-1.25-6.9-2.64-11.34-4.17-5.27-1.67-10.43-3.51-15.49-5.53-5.06-2.01-9.57-4.7-13.52-8.03-3.95-3.34-7.14-7.54-9.56-12.62-2.43-5.08-3.64-11.51-3.64-19.3s1.28-14.85,3.85-21.17c2.56-6.33,6.17-11.75,10.81-16.27,4.64-4.52,10.33-8.03,17.05-10.54,6.72-2.51,14.25-3.76,22.57-3.76,7.76,0,15.87,1.08,24.33,3.23,8.45,2.16,16.56,5.32,24.33,9.49l-16.22,31.92h0ZM228.52,12.25h-39.01l-76.21,157.3h51.78l-.31-38.83h-10.48l54.36-48.46,54.36,48.46h-10.83v38.83h51.83L228.52,12.25Zm324.07,182.43c.68,0,1.09.23,1.46.79,2.59,3.91,5.2,7.8,7.81,11.7l.64.93c.45-.19.57-.62.79-.96,2.47-3.85,4.94-7.7,7.37-11.57.41-.66.85-.92,1.63-.9,2.6.05,5.21.02,7.81.03.33,0,.67-.09,1.02.12-.1.43-.41.73-.63,1.05-4.44,6.36-8.87,12.72-13.33,19.06-.44.62-.63,1.23-.62,1.98.03,3.18.02,6.36.01,9.54,0,.94,0,.96-.89.96-2.49,0-4.98,0-7.48,0-.86,0-.88-.01-.88-.87,0-3.25-.02-6.51,0-9.76,0-.76-.17-1.37-.61-1.99-3.95-5.59-7.87-11.2-11.8-16.79l-.87-1.22-1.32-2.06h9.87m-113.39,9.68v21.61c0,.26-.02.53,0,.8.03.43-.14.61-.58.61-2.38-.01-4.76,0-7.14,0-.37,0-.57-.13-.54-.53.02-.23,0-.45,0-.68v-30.21c0-.19.03-.38,0-.56-.09-.63.23-.75.79-.75,3.51.02,7.02.04,10.54-.01.73-.01.99.38,1.29.87,3.06,4.82,6.12,9.64,9.18,14.46,1.48,2.33,2.95,4.66,4.44,6.99.19.3.4.59.78.83v-21.76c0-.23.03-.46,0-.68-.07-.58.22-.7.73-.69,1.51.02,3.02,0,4.53,0,.76,0,1.51.03,2.27,0,.55-.03.88.13.79.75-.03.19,0,.38,0,.57v30.1c0,.19-.03.38,0,.57.09.63-.23.75-.79.74-3.55-.01-7.1-.03-10.65.01-.65,0-.93-.3-1.23-.78-3.52-5.56-7.06-11.1-10.59-16.65l-3.35-5.26c-.08-.13-.14-.28-.48-.34"/>
  <g class="cls-1">
    <path class="cls-2" d="m345.38,211.47c.02-1.1-.06-2.19-.28-3.27-.74-3.77-2.77-6.39-6.6-7.41-1.55-.41-3.13-.43-4.73-.32-3.83.28-6.77,2.57-7.93,6.25-.87,2.77-.91,5.59-.24,8.4.79,3.34,2.89,5.42,6.22,6.17,2.46.55,4.95.53,7.39-.15,2.93-.81,4.82-2.7,5.66-5.64.38-1.32.51-2.67.48-4.04m-10.5,16.51c-3.3,0-6.56-.35-9.65-1.61-5.54-2.25-8.57-6.44-9.36-12.33-.35-2.61-.31-5.21.33-7.77,1.31-5.27,4.72-8.67,9.69-10.56,3.92-1.49,8.01-1.76,12.15-1.49,1.96.13,3.89.44,5.78,1.02,6.46,1.98,10.37,6.76,11.01,13.49.21,2.27.18,4.54-.29,6.78-1.12,5.39-4.38,8.92-9.45,10.84-3.29,1.25-6.73,1.61-10.22,1.62"/>
  </g>
  <path class="cls-2" d="m409.47,205.86c-.06,2.67.11,5.93-.11,9.18-.07,1.1-.26,2.18-.55,3.24-1.03,3.8-3.38,6.42-7.05,7.85-2.5.97-5.1,1.36-7.74,1.5-3.87.21-7.7-.02-11.41-1.26-1.44-.48-2.79-1.15-3.98-2.1-2.42-1.92-3.59-4.51-3.95-7.52-.16-1.31-.23-2.63-.23-3.96.01-5.75,0-11.5,0-17.26v-.34c.03-.76.03-.77.85-.78,1.32,0,2.65,0,3.97,0s2.57-.01,3.85,0c.79,0,.81.02.81.83v18.05c0,1.11.17,2.19.54,3.23.89,2.53,2.83,3.74,5.36,4.1,1.65.23,3.31.2,4.95-.17,2.83-.64,4.54-2.45,5.03-5.31.15-.9.21-1.8.21-2.71,0-5.49,0-10.98,0-16.47v-.57c0-.97,0-.98.99-.98,2.53,0,5.06,0,7.59,0,.87,0,.88.02.88.88,0,3.33,0,6.66,0,10.57m-113.8-.41c-2.97,0-5.84,0-8.7,0-.44,0-.56-.19-.66-.57-.68-2.54-2.52-3.63-4.96-3.96-1.28-.18-2.57-.15-3.84.06-3.43.57-5.52,2.6-6.25,6.14-.56,2.73-.55,5.49.14,8.21.92,3.67,3.23,5.59,6.97,5.86,1.28.09,2.56.03,3.82-.27,2.23-.53,3.67-1.89,4.15-4.15.14-.66.38-.85,1.04-.84,2.57.04,5.13,0,7.7.02.81,0,.83.03.76.83-.41,4.5-2.58,7.74-6.76,9.55-2.13.93-4.4,1.33-6.7,1.49-3.49.26-6.95.07-10.31-.97-6.02-1.87-9.42-6.01-10.37-12.2-.41-2.68-.37-5.35.16-8.02,1.04-5.24,3.99-8.94,8.99-10.8,5.54-2.05,11.24-2.16,16.91-.57,4.45,1.26,7.04,4.34,7.83,8.91.04.22.06.45.08.68.01.15,0,.3,0,.58m-218.09,8.99l6.1-12.47,5.52,12.47h-11.62Zm-15.82,12.88c3.8,0,5.29,0,9.08,0,.49,0,.76-.1.97-.59.79-1.84,1.66-3.64,2.47-5.46.17-.38.35-.55.79-.54,5.52.02,11.03.02,16.54,0,.44,0,.63.15.79.54.78,1.84,1.61,3.66,2.38,5.51.18.43.39.55.85.55,3.06-.03,6.12-.01,9.19-.02.18,0,.36.04.55-.06-.03-.27-.19-.5-.3-.73l-7.81-15.98-7.41-15.19c-.16-.32-.28-.55-.73-.54-3.33.03-6.67.02-10.01,0-.38,0-.55.15-.71.47-.72,1.42-1.46,2.82-2.19,4.23l-13.29,25.58-1.17,2.21s0,0,0,0Zm-29.49.04h-15.86c-.16,0-.32,0-.48,0-.21.01-.27-.1-.26-.29,0-.16,0-.32,0-.47v-31.06c0-.87-.07-.61,1.02-.67,2.39-.13,4.79-.08,7.19,0,1.02.03.95-.15.95.64v24.03c0,.81-.1.73.73.73h15.52c.85,0,.75-.09.76.77v6.09c0,.13-.1.23-.23.23h-9.32m146.94-16.27v-15.42c0-.16,0-.32,0-.48-.01-.25.06-.39.34-.36.14.02.27,0,.41,0h26.13c.73,0,.66-.07.66.66v5.6c0,.76.05.68-.71.68h-17.15c-.88,0-.77-.09-.77.75v4.17c0,.76-.09.7.68.7h16.47c.56,0,.57,0,.57.54v5.59c0,.54,0,.55-.56.55h-16.34c-.96,0-.81-.12-.81.84-.01,1.59,0,3.18,0,4.78,0,.72-.06.66.65.66h17.63c1,0,.85-.13.85.87,0,1.8,0,3.59,0,5.39,0,.8.09.71-.74.71h-26.67c-.72,0-.64.09-.64-.67v-15.56m-23.87,16.14c-.22.15-.41.09-.58.09-3.56,0-7.13,0-10.69.02-.44,0-.7-.14-.96-.48-3.94-5.08-7.89-10.16-11.83-15.24-.17-.21-.3-.44-.54-.61-.17.26-.09.51-.09.75v14.81q0,.75-.76.75h-7.76c-.74,0-.65.07-.65-.66v-31.54c0-.2.06-.3.27-.29h8.3c.58,0,.59,0,.59.59v13.15c.31-.06.43-.3.58-.46,3.94-4.25,7.87-8.5,11.79-12.77.34-.36.66-.52,1.17-.51,3.31.02,6.63,0,9.95,0-.05.1,0-.01.02.08,0,.02,0,.05,0,.06l-13.74,14.28,14.93,17.98m366.9-28.08v2.4s-1.96.06-2.9.07c-2.72.03-5.43,0-8.15,0-.26,0-.53.01-.79,0-.35-.02-.47.16-.45.48.01.3,0,.61,0,.91v23.17c0,1.37.19,1.25-1.29,1.25h-6.91c-1.17,0-1.05.03-1.05-1.03v-23.28q0-1.49-1.5-1.49h-9.97c-.91,0-.92-.02-.92-.94,0-1.74.01-3.49-.01-5.23,0-.51.12-.8.69-.74.26.03.53,0,.79,0h29.57"/>
  <path class="cls-2" d="m519.34,194.7h2.56c.19,0,.34.15.34.34v4.09"/>
</svg>